# xmcd CD database file
#
# Track frame offsets:
#	150
#	18585
#	37078
#	53520
#	66311
#	83427
#	94330
#	125611
#	139688
#	157397
#	174760
#	199247
#
# Disc length: 2957 seconds
#
# Revision: 2
# Processed by: cddbd v1.5.2PL0 Copyright (c) Steve Scherf et al.
# Submitted via: CDex 1.51
#
DISCID=a40b8b0c
DTITLE=Steve Mayone - Bedroom Rockstar
DYEAR=2004
DGENRE=Singer/Songwriter
TTITLE0=Losing
TTITLE1=The Sweetest Thing
TTITLE2=Other Side
TTITLE3=Going Down
TTITLE4=Deeper In The Well
TTITLE5=Bedroom Rockstar
TTITLE6=Stranded
TTITLE7=Not That Strong
TTITLE8=Good Day To Die
TTITLE9=Wanted Man
TTITLE10=She Runs Deep
TTITLE11=I Don't Deserve You
EXTD=www.stevemayone.com YEAR: 2004
EXTT0=
EXTT1=
EXTT2=
EXTT3=
EXTT4=
EXTT5=
EXTT6=
EXTT7=
EXTT8=
EXTT9=
EXTT10=
EXTT11=
PLAYORDER=
